<svg width="14" height="14" viewBox="0 0 17 16" fill="none">
  <path d="M3.72917 13.0625C2.82639 13.0625 2.0625 12.75 1.4375 12.125C0.8125 11.5 0.5 10.7361 0.5 9.83333C0.5 8.93056 0.8125 8.16667 1.4375 7.54167C2.0625 6.91667 2.82639 6.60417 3.72917 6.60417C4.63194 6.60417 5.39583 6.91667 6.02083 7.54167C6.64583 8.16667 6.95833 8.93056 6.95833 9.83333C6.95833 10.7361 6.64583 11.5 6.02083 12.125C5.39583 12.75 4.63194 13.0625 3.72917 13.0625ZM11.8528 9.45833C10.6037 9.45833 9.54514 9.02386 8.67708 8.15492C7.80903 7.28597 7.375 6.22694 7.375 4.97783C7.375 3.72872 7.80947 2.67014 8.67842 1.80208C9.54736 0.934028 10.6064 0.5 11.8555 0.5C13.1046 0.5 14.1632 0.934473 15.0312 1.80342C15.8993 2.67236 16.3333 3.73139 16.3333 4.9805C16.3333 6.22961 15.8989 7.28819 15.0299 8.15625C14.161 9.02431 13.1019 9.45833 11.8528 9.45833ZM10.185 15.5C9.54779 15.5 9.00694 15.277 8.5625 14.8309C8.11806 14.3848 7.89583 13.8431 7.89583 13.2059C7.89583 12.5686 8.11888 12.0278 8.56496 11.5833C9.01103 11.1389 9.55269 10.9167 10.19 10.9167C10.8272 10.9167 11.3681 11.1397 11.8125 11.5858C12.2569 12.0319 12.4792 12.5735 12.4792 13.2108C12.4792 13.848 12.2561 14.3889 11.81 14.8333C11.364 15.2778 10.8223 15.5 10.185 15.5Z" fill="currentColor"/>
</svg>
