<svg width="14" height="14" viewBox="0 0 16 16" fill="none" xmlns="http://www.w3.org/2000/svg">
<path d="M12.6875 15.3333L7.31248 9.91667C6.99304 10.0278 6.67359 10.1181 6.35415 10.1875C6.0347 10.2569 5.70831 10.2917 5.37498 10.2917C4.02776 10.2917 2.88192 9.82292 1.93748 8.88542C0.993035 7.94792 0.520813 6.80556 0.520813 5.45833C0.520813 5.02778 0.576369 4.60764 0.68748 4.19792C0.798591 3.78819 0.958313 3.40278 1.16665 3.04167L4.18748 6.0625L6.10415 4.27083L2.99998 1.16667C3.36109 0.958333 3.74304 0.795139 4.14581 0.677083C4.54859 0.559028 4.95831 0.5 5.37498 0.5C6.74998 0.5 7.92012 0.982639 8.8854 1.94792C9.85067 2.91319 10.3333 4.08333 10.3333 5.45833C10.3333 5.79167 10.2986 6.11806 10.2291 6.4375C10.1597 6.75694 10.0694 7.07639 9.95831 7.39583L15.3541 12.7708C15.5069 12.9236 15.5833 13.1076 15.5833 13.3229C15.5833 13.5382 15.5069 13.7222 15.3541 13.875L13.7708 15.3333C13.618 15.4861 13.4375 15.5625 13.2291 15.5625C13.0208 15.5625 12.8403 15.4861 12.6875 15.3333Z" fill="currentColor"/>
</svg>
