<svg width="36" height="36" viewBox="0 0 36 36" fill="none" xmlns="http://www.w3.org/2000/svg">
<path d="M12.95 24.85L15.15 22.65L10.5 18L15.1 13.4L12.9 11.2L6.1 18L12.95 24.85ZM23.05 24.85L29.9 18L23.05 11.15L20.85 13.35L25.5 18L20.85 22.65L23.05 24.85ZM3 36C2.2 36 1.5 35.7 0.9 35.1C0.3 34.5 0 33.8 0 33V3C0 2.2 0.3 1.5 0.9 0.9C1.5 0.3 2.2 0 3 0H33C33.8 0 34.5 0.3 35.1 0.9C35.7 1.5 36 2.2 36 3V33C36 33.8 35.7 34.5 35.1 35.1C34.5 35.7 33.8 36 33 36H3ZM3 33H33V3H3V33Z" fill="currentColor"/>
</svg>
