<svg width="20" height="20" viewBox="0 0 20 20" fill="none" xmlns="http://www.w3.org/2000/svg"><path d="m7.896 12.854.917-.916L6.875 10l1.917-1.917-.917-.916L5.042 10l2.854 2.854Zm4.208 0L14.958 10l-2.854-2.854-.916.917L13.124 10l-1.938 1.938.917.916ZM3.75 17.5a1.2 1.2 0 0 1-.875-.375 1.2 1.2 0 0 1-.375-.875V3.75a1.2 1.2 0 0 1 .375-.875A1.2 1.2 0 0 1 3.75 2.5h12.5a1.2 1.2 0 0 1 .875.375c.25.25.375.542.375.875v12.5a1.2 1.2 0 0 1-.375.875 1.2 1.2 0 0 1-.875.375H3.75Zm0-1.25h12.5V3.75H3.75v12.5Z" fill="currentColor"/></svg>