<svg width="40" height="30" viewBox="0 0 40 30" fill="none" xmlns="http://www.w3.org/2000/svg">
<path d="M7.5 30L0 22.5L2.25 20.25L6 24V7.75C6 5.58333 6.75 3.75 8.25 2.25C9.75 0.75 11.5833 0 13.75 0C15.9167 0 17.75 0.75 19.25 2.25C20.75 3.75 21.5 5.58333 21.5 7.75V22.2C21.5 23.5 21.9667 24.6167 22.9 25.55C23.8333 26.4833 24.95 26.95 26.25 26.95C27.55 26.95 28.6667 26.4833 29.6 25.55C30.5333 24.6167 31 23.5 31 22.2V6L27.25 9.75L25 7.5L32.5 0L40 7.5L37.75 9.75L34 6V22.2C34 24.3667 33.25 26.2 31.75 27.7C30.25 29.2 28.4167 29.95 26.25 29.95C24.0833 29.95 22.25 29.2 20.75 27.7C19.25 26.2 18.5 24.3667 18.5 22.2V7.75C18.5 6.45 18.0333 5.33333 17.1 4.4C16.1667 3.46667 15.05 3 13.75 3C12.45 3 11.3333 3.46667 10.4 4.4C9.46667 5.33333 9 6.45 9 7.75V24L12.75 20.25L15 22.5L7.5 30Z" fill="currentColor"/>
</svg>
