<svg width="12" height="14" viewBox="0 0 12 14" fill="none" xmlns="http://www.w3.org/2000/svg">
<path d="M5.5 12.4333V7.28333L1 4.68333V9.83333L5.5 12.4333ZM6.5 12.4333L11 9.83333V4.66666L6.5 7.28063V12.4333ZM6 6.43333L10.4333 3.84999L6 1.28333L1.55 3.84999L6 6.43333ZM0.5 10.7C0.341667 10.6064 0.21875 10.483 0.13125 10.3298C0.04375 10.1766 0 10.0111 0 9.83333V4.16666C0 3.98888 0.04375 3.8234 0.13125 3.67021C0.21875 3.51702 0.341667 3.39361 0.5 3.29999L5.5 0.416659C5.6592 0.32777 5.82678 0.283325 6.00273 0.283325C6.17869 0.283325 6.34444 0.32777 6.5 0.416659L11.5 3.29999C11.6583 3.39361 11.7813 3.51702 11.8688 3.67021C11.9563 3.8234 12 3.98888 12 4.16666V9.83333C12 10.0111 11.9563 10.1766 11.8688 10.3298C11.7813 10.483 11.6583 10.6064 11.5 10.7L6.5 13.5833C6.3408 13.6722 6.17322 13.7167 5.99727 13.7167C5.82131 13.7167 5.65556 13.6722 5.5 13.5833L0.5 10.7Z" fill="currentColor"/>
</svg>
