<svg width="18" height="18" viewBox="0 0 18 18" fill="none" xmlns="http://www.w3.org/2000/svg">
  <path d="M9.08334 13.8542C9.30556 13.8542 9.49306 13.7778 9.64584 13.625C9.79862 13.4722 9.87501 13.2847 9.87501 13.0625C9.87501 12.8403 9.79862 12.6528 9.64584 12.5C9.49306 12.3472 9.30556 12.2709 9.08334 12.2709C8.86112 12.2709 8.67362 12.3472 8.52084 12.5C8.36806 12.6528 8.29167 12.8403 8.29167 13.0625C8.29167 13.2847 8.36806 13.4722 8.52084 13.625C8.67362 13.7778 8.86112 13.8542 9.08334 13.8542ZM8.35417 10.8125H9.58334C9.58334 10.4514 9.62848 10.1215 9.71876 9.82294C9.80903 9.52433 10.0903 9.18058 10.5625 8.79169C10.9931 8.43058 11.2986 8.07641 11.4792 7.72919C11.6597 7.38197 11.75 7.00002 11.75 6.58335C11.75 5.84724 11.5104 5.25697 11.0313 4.81252C10.5521 4.36808 9.91667 4.14585 9.12501 4.14585C8.44445 4.14585 7.84376 4.31599 7.32292 4.65627C6.80209 4.99655 6.42362 5.4653 6.18751 6.06252L7.29167 6.47919C7.44445 6.0903 7.67362 5.78822 7.97917 5.57294C8.28473 5.35766 8.64584 5.25002 9.06251 5.25002C9.53473 5.25002 9.91667 5.37849 10.2083 5.63544C10.5 5.89238 10.6458 6.22224 10.6458 6.62502C10.6458 6.93058 10.5556 7.21877 10.375 7.4896C10.1945 7.76044 9.93056 8.04169 9.58334 8.33335C9.16667 8.69447 8.85765 9.0521 8.65626 9.40627C8.45487 9.76044 8.35417 10.2292 8.35417 10.8125ZM9.00001 17.3334C7.86112 17.3334 6.78473 17.1146 5.77084 16.6771C4.75695 16.2396 3.87153 15.6424 3.11459 14.8854C2.35764 14.1285 1.76042 13.2431 1.32292 12.2292C0.885422 11.2153 0.666672 10.1389 0.666672 9.00002C0.666672 7.84724 0.885422 6.76391 1.32292 5.75002C1.76042 4.73613 2.35764 3.85419 3.11459 3.10419C3.87153 2.35419 4.75695 1.76044 5.77084 1.32294C6.78473 0.885437 7.86112 0.666687 9.00001 0.666687C10.1528 0.666687 11.2361 0.885437 12.25 1.32294C13.2639 1.76044 14.1458 2.35419 14.8958 3.10419C15.6458 3.85419 16.2396 4.73613 16.6771 5.75002C17.1146 6.76391 17.3333 7.84724 17.3333 9.00002C17.3333 10.1389 17.1146 11.2153 16.6771 12.2292C16.2396 13.2431 15.6458 14.1285 14.8958 14.8854C14.1458 15.6424 13.2639 16.2396 12.25 16.6771C11.2361 17.1146 10.1528 17.3334 9.00001 17.3334ZM9.00001 16.0834C10.9722 16.0834 12.6458 15.3924 14.0208 14.0104C15.3958 12.6285 16.0833 10.9584 16.0833 9.00002C16.0833 7.0278 15.3958 5.35419 14.0208 3.97919C12.6458 2.60419 10.9722 1.91669 9.00001 1.91669C7.04167 1.91669 5.37153 2.60419 3.98959 3.97919C2.60764 5.35419 1.91667 7.0278 1.91667 9.00002C1.91667 10.9584 2.60764 12.6285 3.98959 14.0104C5.37153 15.3924 7.04167 16.0834 9.00001 16.0834Z" fill="currentColor"/>
</svg>
