<svg width="24" height="24" viewBox="0 0 32 40" fill="none" xmlns="http://www.w3.org/2000/svg">
<path d="M7.8 37H24.2V30.65C24.2 28.3167 23.4083 26.3083 21.825 24.625C20.2417 22.9417 18.3 22.1 16 22.1C13.7 22.1 11.7583 22.9417 10.175 24.625C8.59167 26.3083 7.8 28.3167 7.8 30.65V37ZM0 40V37H4.8V30.65C4.8 28.3167 5.40833 26.175 6.625 24.225C7.84167 22.275 9.53333 20.8667 11.7 20C9.53333 19.1333 7.84167 17.7167 6.625 15.75C5.40833 13.7833 4.8 11.6333 4.8 9.3V3H0V0H32V3H27.2V9.3C27.2 11.6333 26.5917 13.7833 25.375 15.75C24.1583 17.7167 22.4667 19.1333 20.3 20C22.4667 20.8667 24.1583 22.275 25.375 24.225C26.5917 26.175 27.2 28.3167 27.2 30.65V37H32V40H0Z" fill="currentColor"/>
</svg>
