<svg width="20" height="20" viewBox="0 0 20 20" fill="none" xmlns="http://www.w3.org/2000/svg">
  <path d="M4.875 19.1667C4.21528 19.1667 3.65451 18.9358 3.19271 18.474C2.7309 18.0122 2.5 17.4514 2.5 16.7917C2.5 16.1319 2.7309 15.5712 3.19271 15.1094C3.65451 14.6476 4.21528 14.4167 4.875 14.4167C5.06944 14.4167 5.23958 14.434 5.38542 14.4687C5.53125 14.5035 5.68056 14.5556 5.83333 14.625L7.60417 12.4167C7.34028 12.0972 7.13889 11.7326 7 11.3229C6.86111 10.9132 6.82639 10.4861 6.89583 10.0417L4.375 9.1875C4.16667 9.53472 3.89236 9.80556 3.55208 10C3.21181 10.1944 2.81944 10.2917 2.375 10.2917C1.71528 10.2917 1.15451 10.0608 0.692708 9.59896C0.230903 9.13715 0 8.57639 0 7.91667C0 7.25694 0.230903 6.69618 0.692708 6.23437C1.15451 5.77257 1.71528 5.54167 2.375 5.54167C3.03472 5.54167 3.59549 5.77257 4.05729 6.23437C4.5191 6.69618 4.75 7.25694 4.75 7.91667V8L7.29167 8.875C7.54167 8.43056 7.84375 8.09028 8.19792 7.85417C8.55208 7.61806 8.94444 7.45139 9.375 7.35417V4.66667C8.83333 4.51389 8.40625 4.21528 8.09375 3.77083C7.78125 3.32639 7.625 2.86111 7.625 2.375C7.625 1.71528 7.8559 1.15451 8.31771 0.692708C8.77951 0.230903 9.34028 0 10 0C10.6597 0 11.2205 0.230903 11.6823 0.692708C12.1441 1.15451 12.375 1.71528 12.375 2.375C12.375 2.86111 12.2153 3.32639 11.8958 3.77083C11.5764 4.21528 11.1528 4.51389 10.625 4.66667V7.35417C11.0556 7.45139 11.4514 7.61806 11.8125 7.85417C12.1736 8.09028 12.4792 8.43056 12.7292 8.875L15.25 8V7.91667C15.25 7.25694 15.4809 6.69618 15.9427 6.23437C16.4045 5.77257 16.9653 5.54167 17.625 5.54167C18.2847 5.54167 18.8455 5.77257 19.3073 6.23437C19.7691 6.69618 20 7.25694 20 7.91667C20 8.57639 19.7691 9.13715 19.3073 9.59896C18.8455 10.0608 18.2847 10.2917 17.625 10.2917C17.1806 10.2917 16.7847 10.1944 16.4375 10C16.0903 9.80556 15.8194 9.53472 15.625 9.1875L13.1042 10.0417C13.1736 10.4861 13.1424 10.9132 13.0104 11.3229C12.8785 11.7326 12.6736 12.0972 12.3958 12.4167L14.1667 14.625C14.3194 14.5556 14.4688 14.5035 14.6146 14.4687C14.7604 14.434 14.9275 14.4167 15.1159 14.4167C15.7886 14.4167 16.3542 14.6476 16.8125 15.1094C17.2708 15.5712 17.5 16.1319 17.5 16.7917C17.5 17.4514 17.2691 18.0122 16.8073 18.474C16.3455 18.9358 15.7847 19.1667 15.125 19.1667C14.4653 19.1667 13.9045 18.9358 13.4427 18.474C12.9809 18.0122 12.75 17.4514 12.75 16.7917C12.75 16.5139 12.7882 16.2639 12.8646 16.0417C12.941 15.8194 13.0486 15.6042 13.1875 15.3958L11.4167 13.1875C10.9705 13.4236 10.4943 13.5417 9.98827 13.5417C9.4822 13.5417 9.00694 13.4236 8.5625 13.1875L6.8125 15.4167C6.95139 15.625 7.05903 15.8368 7.13542 16.0521C7.21181 16.2674 7.25 16.5139 7.25 16.7917C7.25 17.4514 7.0191 18.0122 6.55729 18.474C6.09549 18.9358 5.53472 19.1667 4.875 19.1667ZM2.37573 9.04167C2.69469 9.04167 2.96181 8.93378 3.17708 8.71802C3.39236 8.50226 3.5 8.2349 3.5 7.91594C3.5 7.59698 3.39212 7.32986 3.17635 7.11458C2.96059 6.89931 2.69323 6.79167 2.37427 6.79167C2.05531 6.79167 1.78819 6.89955 1.57292 7.11531C1.35764 7.33108 1.25 7.59844 1.25 7.9174C1.25 8.23635 1.35788 8.50347 1.57365 8.71875C1.78941 8.93403 2.05677 9.04167 2.37573 9.04167ZM4.87573 17.9167C5.19469 17.9167 5.46181 17.8088 5.67708 17.593C5.89236 17.3773 6 17.1099 6 16.7909C6 16.472 5.89212 16.2049 5.67635 15.9896C5.46059 15.7743 5.19323 15.6667 4.87427 15.6667C4.55531 15.6667 4.28819 15.7745 4.07292 15.9903C3.85764 16.2061 3.75 16.4734 3.75 16.7924C3.75 17.1114 3.85788 17.3785 4.07365 17.5937C4.28941 17.809 4.55677 17.9167 4.87573 17.9167ZM10.0007 3.5C10.3197 3.5 10.5868 3.39212 10.8021 3.17635C11.0174 2.96059 11.125 2.69323 11.125 2.37427C11.125 2.05531 11.0171 1.78819 10.8014 1.57292C10.5856 1.35764 10.3182 1.25 9.99927 1.25C9.68031 1.25 9.41319 1.35788 9.19792 1.57365C8.98264 1.78941 8.875 2.05677 8.875 2.37573C8.875 2.69469 8.98288 2.96181 9.19865 3.17708C9.41441 3.39236 9.68177 3.5 10.0007 3.5ZM10.0104 12.2917C10.5312 12.2917 10.9722 12.1076 11.3333 11.7396C11.6944 11.3715 11.875 10.9271 11.875 10.4062C11.875 9.88542 11.6938 9.44444 11.3313 9.08333C10.9688 8.72222 10.525 8.54167 10 8.54167C9.48611 8.54167 9.04514 8.72292 8.67708 9.08542C8.30903 9.44792 8.125 9.89167 8.125 10.4167C8.125 10.9306 8.30903 11.3715 8.67708 11.7396C9.04514 12.1076 9.48958 12.2917 10.0104 12.2917ZM15.1257 17.9167C15.4447 17.9167 15.7118 17.8088 15.9271 17.593C16.1424 17.3773 16.25 17.1099 16.25 16.7909C16.25 16.472 16.1421 16.2049 15.9264 15.9896C15.7106 15.7743 15.4432 15.6667 15.1243 15.6667C14.8053 15.6667 14.5382 15.7745 14.3229 15.9903C14.1076 16.2061 14 16.4734 14 16.7924C14 17.1114 14.1079 17.3785 14.3236 17.5937C14.5394 17.809 14.8068 17.9167 15.1257 17.9167ZM17.6257 9.04167C17.9447 9.04167 18.2118 8.93378 18.4271 8.71802C18.6424 8.50226 18.75 8.2349 18.75 7.91594C18.75 7.59698 18.6421 7.32986 18.4264 7.11458C18.2106 6.89931 17.9432 6.79167 17.6243 6.79167C17.3053 6.79167 17.0382 6.89955 16.8229 7.11531C16.6076 7.33108 16.5 7.59844 16.5 7.9174C16.5 8.23635 16.6079 8.50347 16.8236 8.71875C17.0394 8.93403 17.3068 9.04167 17.6257 9.04167Z" fill="currentColor"/>
</svg>
