<svg width="36" height="36" viewBox="0 0 44 24" fill="none" xmlns="http://www.w3.org/2000/svg">
<path d="M3.4956 24C2.53187 24 1.70833 23.6569 1.025 22.9706C0.341667 22.2843 0 21.4593 0 20.4956C0 19.5319 0.341567 18.7083 1.0247 18.025C1.70783 17.3417 2.52905 17 3.48835 17C3.66278 17 3.83333 17.0083 4 17.025C4.16667 17.0417 4.38333 17.0833 4.65 17.15L14.65 7.15C14.5833 6.88333 14.5417 6.66667 14.525 6.5C14.5083 6.33333 14.5 6.16279 14.5 5.98835C14.5 5.02905 14.8432 4.20783 15.5294 3.5247C16.2157 2.84157 17.0407 2.5 18.0044 2.5C18.9681 2.5 19.7917 2.8439 20.475 3.5317C21.1583 4.2195 21.5 5.04633 21.5 6.0122C21.5 6.07073 21.45 6.45 21.35 7.15L26.85 12.65C27.1167 12.5833 27.3333 12.5417 27.5 12.525C27.6667 12.5083 27.8333 12.5 28 12.5C28.1667 12.5 28.3333 12.5083 28.5 12.525C28.6667 12.5417 28.8833 12.5833 29.15 12.65L37.15 4.65C37.0833 4.38333 37.0417 4.16667 37.025 4C37.0083 3.83333 37 3.66278 37 3.48835C37 2.52905 37.3432 1.70783 38.0294 1.0247C38.7157 0.341568 39.5407 0 40.5045 0C41.4682 0 42.2917 0.343149 42.975 1.02945C43.6583 1.71572 44 2.54072 44 3.50445C44 4.46815 43.6584 5.29167 42.9753 5.975C42.2922 6.65833 41.471 7 40.5117 7C40.3372 7 40.1667 6.99167 40 6.975C39.8333 6.95833 39.6167 6.91667 39.35 6.85L31.35 14.85C31.4167 15.1167 31.4583 15.3333 31.475 15.5C31.4917 15.6667 31.5 15.8372 31.5 16.0117C31.5 16.971 31.1569 17.7922 30.4706 18.4753C29.7843 19.1584 28.9593 19.5 27.9956 19.5C27.0319 19.5 26.2083 19.1584 25.525 18.4753C24.8417 17.7922 24.5 16.971 24.5 16.0117C24.5 15.8372 24.5083 15.6667 24.525 15.5C24.5417 15.3333 24.5833 15.1167 24.65 14.85L19.15 9.35C18.8833 9.41667 18.6667 9.45833 18.5 9.475C18.3333 9.49167 18.1625 9.5 17.9875 9.5C17.9292 9.5 17.55 9.45 16.85 9.35L6.85 19.35C6.91667 19.6167 6.95833 19.8333 6.975 20C6.99167 20.1667 7 20.3372 7 20.5117C7 21.471 6.65685 22.2922 5.97055 22.9753C5.28428 23.6584 4.4593 24 3.4956 24Z" fill="currentColor"/>
</svg>
