<svg width="32" height="40" viewBox="0 0 32 40" fill="none" xmlns="http://www.w3.org/2000/svg">
<path d="M16.1 31.45C18.7 31.45 20.9 30.55 22.7 28.75C24.5 26.95 25.4 24.75 25.4 22.15C25.4 19.55 24.5 17.35 22.7 15.55C20.9 13.75 18.7 12.85 16.1 12.85C14.6 12.85 13.2333 13.1667 12 13.8C10.7667 14.4333 9.75 15.1833 8.95 16.05V12.6H6.7V20.2H14.4V17.95H10.65C11.1833 17.1833 11.9583 16.5583 12.975 16.075C13.9917 15.5917 15.0333 15.35 16.1 15.35C18.1 15.35 19.7333 15.9833 21 17.25C22.2667 18.5167 22.9 20.15 22.9 22.15C22.9 24.15 22.2667 25.7917 21 27.075C19.7333 28.3583 18.1 29 16.1 29C14.5 29 13.0917 28.5667 11.875 27.7C10.6583 26.8333 9.81667 25.7167 9.35 24.35H6.8C7.4 26.5167 8.53333 28.2417 10.2 29.525C11.8667 30.8083 13.8333 31.45 16.1 31.45ZM3 40C2.2 40 1.5 39.7 0.9 39.1C0.3 38.5 0 37.8 0 37V3C0 2.2 0.3 1.5 0.9 0.9C1.5 0.3 2.2 0 3 0H20.05L32 11.95V37C32 37.8 31.7 38.5 31.1 39.1C30.5 39.7 29.8 40 29 40H3Z" fill="currentColor"/>
</svg>
