<svg width="16" height="16" viewBox="0 0 16 16" fill="none" xmlns="http://www.w3.org/2000/svg">
  <path d="M6.02083 15.5C5.3125 15.5 4.71181 15.2361 4.21875 14.7083C3.72569 14.1806 3.44444 13.5833 3.375 12.9167C2.55556 12.8472 1.87153 12.5035 1.32292 11.8854C0.774306 11.2674 0.5 10.5139 0.5 9.625C0.5 9.31944 0.538194 9.02431 0.614583 8.73958C0.690972 8.45486 0.805556 8.18056 0.958333 7.91667C0.805556 7.66667 0.690972 7.40278 0.614583 7.125C0.538194 6.84722 0.5 6.54861 0.5 6.22917C0.5 5.39583 0.788194 4.68056 1.36458 4.08333C1.94097 3.48611 2.625 3.13889 3.41667 3.04167C3.44444 2.33333 3.71181 1.73264 4.21875 1.23958C4.72569 0.746528 5.33333 0.5 6.04167 0.5C6.44444 0.5 6.80208 0.572917 7.11458 0.71875C7.42708 0.864583 7.72222 1.07639 8 1.35417C8.27778 1.07639 8.56944 0.864583 8.875 0.71875C9.18056 0.572917 9.53472 0.5 9.9375 0.5C10.6319 0.5 11.2292 0.746528 11.7292 1.23958C12.2292 1.73264 12.5 2.33333 12.5417 3.04167C13.3472 3.11111 14.0417 3.44792 14.625 4.05208C15.2083 4.65625 15.5 5.38194 15.5 6.22917C15.5 6.54861 15.4583 6.85069 15.375 7.13542C15.2917 7.42014 15.1736 7.6875 15.0208 7.9375C15.1736 8.21528 15.2917 8.50694 15.375 8.8125C15.4583 9.11806 15.5 9.41667 15.5 9.70833C15.5 10.5972 15.2257 11.3368 14.6771 11.9271C14.1285 12.5174 13.4444 12.8472 12.625 12.9167C12.5556 13.5833 12.2708 14.1806 11.7708 14.7083C11.2708 15.2361 10.6736 15.5 9.97917 15.5C9.5625 15.5 9.20139 15.4306 8.89583 15.2917C8.59028 15.1528 8.29167 14.9444 8 14.6667C7.70833 14.9444 7.40972 15.1528 7.10417 15.2917C6.79861 15.4306 6.4375 15.5 6.02083 15.5ZM8.625 3V13C8.625 13.3472 8.76042 13.6424 9.03125 13.8854C9.30208 14.1285 9.625 14.25 10 14.25C10.3611 14.25 10.6736 14.0903 10.9375 13.7708C11.2014 13.4514 11.3472 13.125 11.375 12.7917C11.0556 12.6806 10.7569 12.5312 10.4792 12.3438C10.2014 12.1562 9.96528 11.9236 9.77083 11.6458C9.65972 11.4931 9.61806 11.3368 9.64583 11.1771C9.67361 11.0174 9.76389 10.8819 9.91667 10.7708C10.0694 10.6597 10.2257 10.6181 10.3854 10.6458C10.5451 10.6736 10.6806 10.7639 10.7917 10.9167C10.9722 11.1667 11.1944 11.3576 11.4583 11.4896C11.7222 11.6215 12.0139 11.6875 12.3333 11.6875C12.8611 11.6875 13.3125 11.5069 13.6875 11.1458C14.0625 10.7847 14.25 10.3056 14.25 9.70833C14.25 9.58333 14.2361 9.45486 14.2083 9.32292C14.1806 9.19097 14.1528 9.05556 14.125 8.91667C13.875 9.09722 13.6007 9.23264 13.3021 9.32292C13.0035 9.41319 12.6944 9.45833 12.375 9.45833C12.1944 9.45833 12.0451 9.39931 11.9271 9.28125C11.809 9.16319 11.75 9.01389 11.75 8.83333C11.75 8.65278 11.809 8.50347 11.9271 8.38542C12.0451 8.26736 12.1944 8.20833 12.375 8.20833C12.9028 8.20833 13.3472 8.01389 13.7083 7.625C14.0694 7.23611 14.25 6.77083 14.25 6.22917C14.25 5.70139 14.0556 5.25 13.6667 4.875C13.2778 4.5 12.8333 4.29861 12.3333 4.27083C12.1944 4.60417 11.9965 4.89931 11.7396 5.15625C11.4826 5.41319 11.1875 5.60417 10.8542 5.72917C10.6875 5.79861 10.5278 5.79514 10.375 5.71875C10.2222 5.64236 10.1181 5.52083 10.0625 5.35417C10.0069 5.1875 10.0139 5.02431 10.0833 4.86458C10.1528 4.70486 10.2708 4.59722 10.4375 4.54167C10.6875 4.45833 10.8924 4.29167 11.0521 4.04167C11.2118 3.79167 11.2917 3.50694 11.2917 3.1875C11.2917 2.78472 11.1597 2.44444 10.8958 2.16667C10.6319 1.88889 10.3194 1.75 9.95833 1.75C9.59722 1.75 9.28472 1.87153 9.02083 2.11458C8.75694 2.35764 8.625 2.65278 8.625 3ZM7.375 13V3C7.375 2.65278 7.24653 2.35764 6.98958 2.11458C6.73264 1.87153 6.41667 1.75 6.04167 1.75C5.68056 1.75 5.36458 1.88889 5.09375 2.16667C4.82292 2.44444 4.6875 2.78472 4.6875 3.1875C4.6875 3.50694 4.76389 3.78819 4.91667 4.03125C5.06944 4.27431 5.27083 4.4375 5.52083 4.52083C5.6875 4.57639 5.80903 4.68403 5.88542 4.84375C5.96181 5.00347 5.97222 5.15972 5.91667 5.3125C5.84722 5.47917 5.73264 5.60417 5.57292 5.6875C5.41319 5.77083 5.25 5.77778 5.08333 5.70833C4.75 5.59722 4.45833 5.41319 4.20833 5.15625C3.95833 4.89931 3.76389 4.60417 3.625 4.27083C3.13889 4.3125 2.70486 4.51736 2.32292 4.88542C1.94097 5.25347 1.75 5.70139 1.75 6.22917C1.75 6.77083 1.93056 7.23611 2.29167 7.625C2.65278 8.01389 3.09722 8.20833 3.625 8.20833C3.80556 8.20833 3.95486 8.26736 4.07292 8.38542C4.19097 8.50347 4.25 8.65278 4.25 8.83333C4.25 9.01389 4.19097 9.16319 4.07292 9.28125C3.95486 9.39931 3.80556 9.45833 3.625 9.45833C3.30556 9.45833 2.99653 9.40972 2.69792 9.3125C2.39931 9.21528 2.125 9.08333 1.875 8.91667C1.83333 9.02778 1.80208 9.14583 1.78125 9.27083C1.76042 9.39583 1.75 9.52083 1.75 9.64583C1.75 10.2431 1.93403 10.7326 2.30208 11.1146C2.67014 11.4965 3.11806 11.6875 3.64583 11.6875C3.95139 11.6875 4.23958 11.6181 4.51042 11.4792C4.78125 11.3403 5.00694 11.1528 5.1875 10.9167C5.29861 10.7778 5.4375 10.691 5.60417 10.6562C5.77083 10.6215 5.92361 10.6597 6.0625 10.7708C6.20139 10.8819 6.28819 11.0208 6.32292 11.1875C6.35764 11.3542 6.31944 11.5069 6.20833 11.6458C6.01389 11.9236 5.78125 12.1562 5.51042 12.3438C5.23958 12.5312 4.94444 12.6806 4.625 12.7917C4.65278 13.125 4.79861 13.4514 5.0625 13.7708C5.32639 14.0903 5.64583 14.25 6.02083 14.25C6.39583 14.25 6.71528 14.1285 6.97917 13.8854C7.24306 13.6424 7.375 13.3472 7.375 13Z" fill="currentColor"/>
</svg>
