<svg width="36" height="36" viewBox="0 0 36 36" fill="none" xmlns="http://www.w3.org/2000/svg">
<path d="M17.9978 21.75C16.9659 21.75 16.0833 21.3826 15.35 20.6478C14.6167 19.913 14.25 19.0296 14.25 17.9978C14.25 16.9659 14.6174 16.0833 15.3522 15.35C16.087 14.6167 16.9704 14.25 18.0022 14.25C19.0341 14.25 19.9167 14.6174 20.65 15.3522C21.3833 16.087 21.75 16.9704 21.75 18.0022C21.75 19.0341 21.3826 19.9167 20.6478 20.65C19.913 21.3833 19.0296 21.75 17.9978 21.75ZM18 36C13 36 8.75 34.2417 5.25 30.725C1.75 27.2083 0 22.95 0 17.95H3C3 22.1167 4.45833 25.6667 7.375 28.6C10.2917 31.5333 13.8333 33 18 33C22.1786 33 25.7232 31.5446 28.634 28.6339C31.5447 25.7232 33 22.1786 33 18C33 13.8214 31.5447 10.2768 28.634 7.36605C25.7232 4.45535 22.1786 3 18 3C15.7 3 13.55 3.50833 11.55 4.525C9.55 5.54167 7.8 6.91667 6.3 8.65H11.5V11.65H1.1V1.25H4.1V6.55C5.86667 4.48333 7.9536 2.875 10.3608 1.725C12.768 0.575 15.3144 0 18 0C20.5 0 22.8417 0.475 25.025 1.425C27.2083 2.375 29.1083 3.65833 30.725 5.275C32.3417 6.89167 33.625 8.79167 34.575 10.975C35.525 13.1583 36 15.5 36 18C36 20.5 35.525 22.8417 34.575 25.025C33.625 27.2083 32.3417 29.1083 30.725 30.725C29.1083 32.3417 27.2083 33.625 25.025 34.575C22.8417 35.525 20.5 36 18 36Z" fill="currentColor"/>
</svg>
