<svg width="140" height="24" viewBox="0 0 140 24" fill="none" xmlns="http://www.w3.org/2000/svg">
<path d="M32.1019 17.9846C33.3595 18.264 35.5953 18.5434 37.1323 18.5434C39.7873 18.5434 40.9052 17.5654 40.9052 16.0286C40.9052 14.6314 39.927 14.2123 36.8529 13.0946C34.1979 12.1166 31.6827 10.9988 31.6827 7.6457C31.6827 4.29256 34.1979 2.05713 38.9489 2.05713C40.486 2.05713 42.3025 2.33656 43.8396 2.61599L43.4204 5.82941C42.1628 5.6897 40.2065 5.27056 38.8091 5.27056C37.1323 5.27056 35.4555 5.6897 35.4555 7.22656C35.4555 8.90313 37.1323 9.32227 39.6476 10.1606C42.023 10.9988 44.678 12.396 44.678 15.8888C44.678 19.3817 42.1628 21.7568 36.9926 21.7568C35.3158 21.7568 33.2198 21.4774 31.543 21.198L32.1019 17.9846Z" fill="#8A38FE"/>
<path d="M52.3634 7.50601C55.8567 7.50601 57.9527 9.74144 57.9527 13.6534C57.9527 14.352 57.9527 15.33 57.813 16.0286H50.1276C50.2674 17.9846 51.2455 18.8229 53.062 18.8229C54.3197 18.8229 55.8567 18.4037 56.8349 17.9846L57.813 20.7789C56.4157 21.3377 54.7389 21.7569 52.9223 21.7569C48.7303 21.7569 46.4945 19.3817 46.4945 14.6314C46.3548 10.0209 48.4508 7.50601 52.3634 7.50601ZM54.3197 13.0946C54.3197 11.418 53.621 10.44 52.2236 10.44C50.6866 10.44 50.1276 11.418 49.9879 13.0946H54.3197Z" fill="#8A38FE"/>
<path d="M60.7475 7.78544H63.2627L63.5421 8.76344C64.3806 8.20458 65.6382 7.50601 67.4547 7.50601C68.9918 7.50601 70.1096 8.06487 70.8083 8.90316C72.0659 8.06487 73.3235 7.50601 75.0003 7.50601C78.0745 7.50601 79.4718 9.60173 79.4718 12.396V21.6172H75.9785V12.8152C75.9785 11.418 75.4196 10.5797 74.0222 10.5797C73.3235 10.5797 72.4851 10.8592 71.6467 11.2783C71.6467 11.6974 71.7865 11.9769 71.7865 12.396V21.6172H68.2931V12.8152C68.2931 11.418 67.7342 10.5797 66.3368 10.5797C65.4984 10.5797 64.66 10.8592 64.1011 11.1386V21.4774H60.6077L60.7475 7.78544Z" fill="#8A38FE"/>
<path d="M87.2969 13.0946C87.9956 13.0946 88.6943 13.0946 89.3929 13.2343V12.8152C89.3929 11.2783 88.834 10.5797 86.8777 10.5797C85.7598 10.5797 84.2228 10.8592 83.1049 10.9989L82.546 8.06487C83.8036 7.78544 85.4804 7.50601 87.1572 7.50601C90.7903 7.50601 92.8863 9.04287 92.8863 12.396V21.6172H90.3711L89.9519 20.6392C89.1135 21.198 87.8559 22.0363 86.179 22.0363C83.6638 22.0363 81.4281 20.4994 81.4281 17.7052C81.5678 14.6314 83.6638 13.0946 87.2969 13.0946ZM87.0175 18.9626C87.9956 18.9626 88.9737 18.5434 89.3929 18.1243V15.6094C88.834 15.6094 87.9956 15.4697 87.4367 15.4697C85.8996 15.4697 85.0612 16.0286 85.0612 17.1463C85.0612 18.4037 85.8996 18.9626 87.0175 18.9626Z" fill="#8A38FE"/>
<path d="M95.9604 7.78544H98.4757L98.7551 8.76344C100.013 7.92516 101.41 7.50601 102.947 7.50601C106.161 7.50601 107.558 9.60173 107.558 12.2563V21.4774H104.065V12.6754C104.065 11.2783 103.506 10.5797 102.109 10.5797C101.131 10.5797 100.152 10.8592 99.5935 11.2783V21.6172H96.1002V7.78544H95.9604Z" fill="#8A38FE"/>
<path d="M110.912 10.7195H108.816V8.06496L111.052 7.92525L111.331 3.87354H114.405V7.64582H117.759V10.5798H114.405V17.4258C114.405 18.4038 114.685 18.6832 115.523 18.6832C116.082 18.6832 116.921 18.5435 117.479 18.2641L118.178 21.0584C117.34 21.4775 116.082 21.757 114.825 21.757C112.449 21.757 110.772 20.4995 110.772 17.5655L110.912 10.7195Z" fill="#8A38FE"/>
<path d="M120.693 2.3367H124.187V5.68985H120.693V2.3367ZM120.693 7.78556H124.187V21.4776H120.693V7.78556Z" fill="#8A38FE"/>
<path d="M131.034 14.4915C129.636 12.5355 128.099 10.1604 126.702 7.78525H130.475C131.313 9.32211 132.291 10.7193 133.13 11.9767H133.27C134.248 10.7193 135.086 9.1824 135.924 7.78525H139.558C138.16 10.1604 136.623 12.5355 135.226 14.4915C136.623 16.4475 138.3 19.2418 139.697 21.4773H135.924C135.086 20.0801 133.968 18.4035 133.13 16.8667H132.99C132.012 18.2638 131.034 19.9404 130.195 21.4773H126.562C127.96 19.1021 129.776 16.4475 131.034 14.4915Z" fill="#8A38FE"/>
<path d="M16.9166 24C16.9034 24 16.877 24 16.8638 24C16.8109 23.9867 16.7581 23.9735 16.7052 23.947C16.6788 23.9337 16.6523 23.9072 16.6259 23.8807L0.186204 12.2519C0.120128 12.1989 0.0672676 12.1326 0.027622 12.053C0.0144068 12.0398 0.0144068 12.0133 0.0144068 12C-0.0120236 11.9204 0.00119161 11.8276 0.027622 11.7481L2.82924 4.26961L2.84246 4.24309C2.86889 4.19006 2.90853 4.13702 2.94818 4.09724C2.97461 4.08398 2.98783 4.07072 3.01426 4.0442C3.04069 4.03094 3.06712 4.01768 3.09355 4.00442L13.6393 0.0265193L13.6789 0.0132597C13.7053 -4.93961e-09 13.745 0 13.7714 0C13.8243 0 13.8771 0.0132597 13.93 0.0265193H13.9564L21.3437 3.23536H21.3569C21.4362 3.27514 21.5023 3.32818 21.542 3.40773C21.5552 3.42099 21.5684 3.44751 21.5684 3.46077C21.5948 3.54033 21.608 3.63315 21.5948 3.72597L17.3263 23.6155C17.3263 23.6287 17.3131 23.6552 17.3131 23.6685C17.2999 23.7215 17.2602 23.7746 17.2206 23.8276C17.1809 23.8674 17.1413 23.9072 17.0884 23.9204C17.0488 23.947 16.9959 23.9602 16.9431 23.9735C16.9695 23.9735 16.9431 23.9867 16.9166 24ZM10.124 13.2862L16.2427 21.8387L14.8419 11.5227L10.124 13.2862ZM2.16848 12.5702L15.0137 21.653L9.17254 13.4851L2.16848 12.5702ZM15.6744 11.0453L17.0091 20.9635L20.3658 5.33039L15.6744 11.0453ZM3.95253 4.64088L9.58221 12.5304L14.7097 10.6077L13.4278 1.18011L3.95253 4.64088ZM1.07162 11.5227L8.45892 12.4906L3.37107 5.35691L1.07162 11.5227ZM14.3661 1.35249L15.5158 9.85193L20.4583 3.8453L14.3661 1.35249Z" fill="#8A38FE"/>
</svg>
