<svg width="22" height="24" viewBox="0 0 22 24" fill="none" xmlns="http://www.w3.org/2000/svg">
<path d="M16.9166 24C16.9034 24 16.877 24 16.8638 24C16.8109 23.9867 16.7581 23.9735 16.7052 23.947C16.6788 23.9337 16.6523 23.9072 16.6259 23.8807L0.186204 12.2519C0.120128 12.1989 0.0672676 12.1326 0.027622 12.053C0.0144068 12.0398 0.0144068 12.0133 0.0144068 12C-0.0120236 11.9204 0.00119161 11.8276 0.027622 11.7481L2.82924 4.26961L2.84246 4.24309C2.86889 4.19006 2.90853 4.13702 2.94818 4.09724C2.97461 4.08398 2.98783 4.07072 3.01426 4.0442C3.04069 4.03094 3.06712 4.01768 3.09355 4.00442L13.6393 0.0265193L13.6789 0.0132597C13.7053 -4.93961e-09 13.745 0 13.7714 0C13.8243 0 13.8771 0.0132597 13.93 0.0265193H13.9564L21.3437 3.23536H21.3569C21.4362 3.27514 21.5023 3.32818 21.542 3.40773C21.5552 3.42099 21.5684 3.44751 21.5684 3.46077C21.5948 3.54033 21.608 3.63315 21.5948 3.72597L17.3263 23.6155C17.3263 23.6287 17.3131 23.6552 17.3131 23.6685C17.2999 23.7215 17.2602 23.7746 17.2206 23.8276C17.1809 23.8674 17.1413 23.9072 17.0884 23.9204C17.0488 23.947 16.9959 23.9602 16.9431 23.9735C16.9695 23.9735 16.9431 23.9867 16.9166 24ZM10.124 13.2862L16.2427 21.8387L14.8419 11.5227L10.124 13.2862ZM2.16848 12.5702L15.0137 21.653L9.17254 13.4851L2.16848 12.5702ZM15.6744 11.0453L17.0091 20.9635L20.3658 5.33039L15.6744 11.0453ZM3.95253 4.64088L9.58221 12.5304L14.7097 10.6077L13.4278 1.18011L3.95253 4.64088ZM1.07162 11.5227L8.45892 12.4906L3.37107 5.35691L1.07162 11.5227ZM14.3661 1.35249L15.5158 9.85193L20.4583 3.8453L14.3661 1.35249Z" fill="#8A38FE"/>
</svg>
