<svg width="18" height="18" viewBox="0 0 18 18" fill="none" xmlns="http://www.w3.org/2000/svg">
  <path d="M7.08334 17.3334L6.66667 14.7084C6.40278 14.6111 6.12501 14.4792 5.83334 14.3125C5.54167 14.1459 5.28473 13.9722 5.06251 13.7917L2.60417 14.9167L0.666672 11.5L2.91667 9.85419C2.88889 9.72919 2.87153 9.58683 2.86459 9.4271C2.85764 9.26738 2.85417 9.12502 2.85417 9.00002C2.85417 8.87502 2.85764 8.73266 2.86459 8.57294C2.87153 8.41322 2.88889 8.27085 2.91667 8.14585L0.666672 6.50002L2.60417 3.08335L5.06251 4.20835C5.28473 4.0278 5.54167 3.85419 5.83334 3.68752C6.12501 3.52085 6.40278 3.39585 6.66667 3.31252L7.08334 0.666687H10.9167L11.3333 3.29169C11.5972 3.38891 11.8785 3.51738 12.1771 3.6771C12.4757 3.83683 12.7292 4.01391 12.9375 4.20835L15.3958 3.08335L17.3333 6.50002L15.0833 8.10419C15.1111 8.24308 15.1285 8.39238 15.1354 8.5521C15.1424 8.71183 15.1458 8.86113 15.1458 9.00002C15.1458 9.13891 15.1424 9.28474 15.1354 9.43752C15.1285 9.5903 15.1111 9.73613 15.0833 9.87502L17.3333 11.5L15.3958 14.9167L12.9375 13.7917C12.7153 13.9722 12.4618 14.1493 12.1771 14.3229C11.8924 14.4965 11.6111 14.625 11.3333 14.7084L10.9167 17.3334H7.08334ZM9.00001 11.7084C9.75001 11.7084 10.3889 11.4445 10.9167 10.9167C11.4445 10.3889 11.7083 9.75002 11.7083 9.00002C11.7083 8.25002 11.4445 7.61113 10.9167 7.08335C10.3889 6.55558 9.75001 6.29169 9.00001 6.29169C8.25001 6.29169 7.61112 6.55558 7.08334 7.08335C6.55556 7.61113 6.29167 8.25002 6.29167 9.00002C6.29167 9.75002 6.55556 10.3889 7.08334 10.9167C7.61112 11.4445 8.25001 11.7084 9.00001 11.7084ZM9.00001 10.4584C8.59723 10.4584 8.25348 10.316 7.96876 10.0313C7.68403 9.74655 7.54167 9.4028 7.54167 9.00002C7.54167 8.59724 7.68403 8.25349 7.96876 7.96877C8.25348 7.68405 8.59723 7.54169 9.00001 7.54169C9.40278 7.54169 9.74653 7.68405 10.0313 7.96877C10.316 8.25349 10.4583 8.59724 10.4583 9.00002C10.4583 9.4028 10.316 9.74655 10.0313 10.0313C9.74653 10.316 9.40278 10.4584 9.00001 10.4584ZM8.08334 16.0834H9.91667L10.2083 13.75C10.6667 13.6389 11.1007 13.4653 11.5104 13.2292C11.9201 12.9931 12.2917 12.7084 12.625 12.375L14.8333 13.3334L15.6667 11.8334L13.7083 10.3959C13.7639 10.1597 13.809 9.9271 13.8438 9.69794C13.8785 9.46877 13.8958 9.23613 13.8958 9.00002C13.8958 8.76391 13.882 8.53127 13.8542 8.3021C13.8264 8.07294 13.7778 7.8403 13.7083 7.60419L15.6667 6.16669L14.8333 4.66669L12.625 5.62502C12.3056 5.26391 11.9445 4.96183 11.5417 4.71877C11.1389 4.47572 10.6945 4.31947 10.2083 4.25002L9.91667 1.91669H8.08334L7.79167 4.25002C7.31945 4.34724 6.87848 4.51391 6.46876 4.75002C6.05903 4.98613 5.69445 5.2778 5.37501 5.62502L3.16667 4.66669L2.33334 6.16669L4.29167 7.60419C4.23612 7.8403 4.19098 8.07294 4.15626 8.3021C4.12153 8.53127 4.10417 8.76391 4.10417 9.00002C4.10417 9.23613 4.12153 9.46877 4.15626 9.69794C4.19098 9.9271 4.23612 10.1597 4.29167 10.3959L2.33334 11.8334L3.16667 13.3334L5.37501 12.375C5.70834 12.7084 6.07987 12.9931 6.48959 13.2292C6.89931 13.4653 7.33334 13.6389 7.79167 13.75L8.08334 16.0834Z" fill="currentColor"/>
</svg>
