<svg width="44" height="36" viewBox="0 0 44 36" fill="none" xmlns="http://www.w3.org/2000/svg">
<path d="M1.5 36C1.075 36 0.71875 35.8554 0.43125 35.5662C0.14375 35.2771 0 34.9187 0 34.4913C0 34.0638 0.14375 33.7083 0.43125 33.425C0.71875 33.1417 1.075 33 1.5 33H42.5C42.925 33 43.2812 33.1446 43.5688 33.4338C43.8563 33.7229 44 34.0813 44 34.5088C44 34.9362 43.8563 35.2917 43.5688 35.575C43.2812 35.8583 42.925 36 42.5 36H1.5ZM5 30C4.2 30 3.5 29.7 2.9 29.1C2.3 28.5 2 27.8 2 27V3C2 2.2 2.3 1.5 2.9 0.9C3.5 0.3 4.2 0 5 0H39C39.8 0 40.5 0.3 41.1 0.9C41.7 1.5 42 2.2 42 3V27C42 27.8 41.7 28.5 41.1 29.1C40.5 29.7 39.8 30 39 30H5ZM5 27H39V3H5V27Z" fill="currentColor"/>
</svg>
