<?xml version="1.0" standalone="no"?>
<!DOCTYPE svg PUBLIC "-//W3C//DTD SVG 20010904//EN"
 "http://www.w3.org/TR/2001/REC-SVG-20010904/DTD/svg10.dtd">
<svg version="1.0" xmlns="http://www.w3.org/2000/svg"
 width="360.000000pt" height="360.000000pt" viewBox="0 0 360.000000 360.000000"
 preserveAspectRatio="xMidYMid meet">

<g transform="translate(0.000000,360.000000) scale(0.100000,-0.100000)"
fill="#000000" stroke="none">
<path d="M2210 3353 c-41 -2 -293 -10 -559 -18 l-484 -15 -166 -89 c-91 -48
-220 -117 -286 -151 -66 -35 -125 -67 -132 -72 -7 -6 -63 -88 -125 -184 -62
-96 -134 -206 -160 -246 -26 -40 -52 -80 -57 -88 -7 -11 36 -76 170 -260 99
-135 206 -281 237 -325 32 -44 134 -183 227 -310 93 -126 205 -279 249 -340
44 -60 116 -159 161 -220 69 -93 199 -271 525 -718 l57 -77 448 697 c588 914
805 1252 937 1456 59 92 108 171 108 175 0 5 -84 122 -187 261 l-188 254 -95
42 c-52 23 -191 85 -308 139 -173 78 -220 96 -255 94 -23 -1 -76 -3 -117 -5z
m465 -151 l299 -137 51 -66 c85 -112 310 -419 313 -428 3 -10 -45 -39 -178
-106 -52 -27 -160 -84 -240 -126 l-145 -78 -655 -21 c-1269 -40 -1251 -39
-1276 -28 -18 9 -21 14 -13 24 9 11 6 16 -12 23 -14 5 -25 5 -27 0 -7 -18 -32
-8 -59 21 -14 17 -33 30 -42 31 -10 0 -8 4 7 9 38 16 28 40 -18 40 -23 0 -40
-5 -40 -11 0 -8 -11 -9 -32 -5 -18 4 -44 9 -58 11 -37 5 -87 27 -73 32 6 2 24
-2 40 -9 39 -19 118 -18 118 2 0 9 -11 16 -25 17 l-25 3 24 -10 c34 -15 23
-20 -29 -13 -39 6 -42 8 -20 14 14 4 -6 6 -47 4 -40 -1 -70 2 -67 6 2 4 -11
11 -30 14 -22 5 -33 12 -30 20 3 7 -8 18 -26 25 -23 9 -28 15 -18 21 24 13
182 28 192 18 13 -12 29 -12 21 1 -4 6 -1 17 5 25 11 13 7 13 -30 0 -47 -17
-84 -20 -76 -6 3 5 27 12 53 16 27 4 54 12 61 18 9 7 16 7 24 -1 13 -13 40 -4
31 11 -4 7 7 8 33 4 28 -5 35 -4 24 4 -11 7 -6 8 19 4 50 -10 183 -13 169 -3
-7 4 19 8 59 8 40 0 72 -3 72 -7 -1 -5 -1 -19 0 -32 1 -20 3 -22 17 -10 9 7
20 22 24 34 7 17 9 17 9 3 1 -10 4 -18 9 -18 8 1 45 77 40 83 -2 2 3 11 11 20
11 15 11 17 -2 17 -8 0 -17 -7 -21 -15 -3 -8 0 -15 6 -15 6 0 9 -3 6 -6 -4 -3
-20 2 -38 11 -18 9 -34 14 -37 12 -2 -3 5 -8 16 -12 20 -6 38 -41 27 -52 -3
-4 -6 1 -6 10 0 18 -25 23 -35 7 -9 -15 -19 -12 -43 10 -28 26 -28 40 0 40 12
0 49 8 82 17 44 12 61 14 64 5 5 -17 22 -15 22 2 0 8 7 16 15 20 25 9 17 21
-27 41 -24 10 -81 36 -128 58 -47 21 -119 54 -160 72 -129 56 -253 116 -249
119 7 6 242 132 394 211 83 43 156 82 162 88 10 7 856 40 1163 45 50 1 81 -11
355 -136z m-1730 -566 c12 -11 4 -14 -48 -19 -34 -4 -75 -9 -92 -12 -25 -4
-23 -3 9 10 21 8 52 16 68 17 16 1 32 6 34 10 7 11 13 10 29 -6z m-65 -34 c0
-8 -78 -32 -102 -32 -21 0 2 14 29 18 15 2 34 7 42 12 20 12 31 12 31 2z
m-120 -12 c-8 -5 -22 -9 -30 -9 -10 0 -8 3 5 9 27 12 43 12 25 0z m-449 -123
c-10 -9 -11 -8 -5 6 3 10 9 15 12 12 3 -3 0 -11 -7 -18z m34 -17 c3 -6 -1 -7
-9 -4 -18 7 -21 14 -7 14 6 0 13 -4 16 -10z m345 -155 c16 -9 19 -14 10 -15
-9 0 -20 4 -25 9 -6 5 -19 11 -30 14 l-20 5 20 0 c11 1 31 -5 45 -13z m1848
-532 c-5 -18 -302 -694 -318 -725 -18 -34 -60 -142 -60 -155 0 -8 5 -11 10 -8
6 3 10 1 10 -4 0 -6 -3 -11 -7 -11 -10 0 -9 -57 0 -67 4 -3 7 -11 7 -17 0 -6
-5 -3 -11 7 -8 14 -14 16 -25 6 -8 -6 -14 -20 -14 -31 0 -11 -11 -34 -25 -52
-35 -46 -31 -56 6 -15 l30 34 -14 -30 c-9 -16 -25 -40 -36 -52 -12 -12 -21
-26 -21 -30 0 -9 -123 -209 -135 -221 -4 -4 0 8 9 25 9 18 31 70 50 115 19 46
44 106 57 133 48 106 62 163 39 166 -5 1 -15 2 -21 3 -7 0 -17 10 -23 20 -6
11 -30 39 -53 63 -24 24 -43 47 -43 52 0 4 -11 13 -26 19 -14 7 -32 28 -40 47
-8 20 -22 44 -32 53 -9 10 -34 39 -56 65 -21 26 -44 47 -52 47 -8 0 -14 4 -14
9 0 7 -24 40 -80 111 -11 14 -20 28 -20 33 0 4 -7 7 -15 7 -8 0 -15 7 -15 15
0 9 -7 18 -15 21 -8 3 -17 14 -20 25 -4 10 -12 19 -20 19 -7 0 -24 17 -36 38
-25 41 -39 53 -51 46 -4 -3 -14 11 -22 30 -11 26 -19 34 -31 30 -11 -5 -15 0
-13 17 2 14 -4 27 -17 33 -13 7 -19 19 -17 31 3 16 1 17 -7 5 -9 -12 -11 -10
-11 12 0 15 -5 30 -12 34 -8 5 -5 10 9 15 29 10 790 44 1082 47 113 2 123 1
119 -15z m-1098 -814 c-7 -11 -14 -18 -17 -15 -3 3 0 12 7 21 18 21 23 19 10
-6z m71 -37 c41 -68 116 -207 207 -382 41 -80 70 -140 65 -135 -23 24 -83 114
-83 124 0 6 -4 11 -9 11 -5 0 -35 37 -67 83 -32 45 -61 87 -66 92 -4 6 -19 25
-34 42 -14 18 -22 38 -18 44 4 8 3 9 -4 5 -7 -4 -12 -1 -12 8 0 9 -5 16 -10
16 -10 0 -35 48 -32 63 1 4 -1 6 -5 6 -20 -3 -22 3 -9 29 21 40 50 38 77 -6z
m-100 11 c13 -16 12 -17 -3 -4 -17 13 -22 21 -14 21 2 0 10 -8 17 -17z m819
-67 c0 -2 -11 -6 -25 -8 -13 -3 -22 -1 -19 3 5 9 44 13 44 5z"/>
<path d="M988 2643 c7 -3 16 -2 19 1 4 3 -2 6 -13 5 -11 0 -14 -3 -6 -6z"/>
<path d="M411 2481 c-7 -5 -23 -6 -35 -4 -21 5 -21 5 -1 -10 17 -13 23 -14 41
-2 11 7 31 15 45 18 21 4 20 4 -6 5 -16 1 -36 -2 -44 -7z"/>
<path d="M560 2460 c0 -19 7 -20 120 -20 113 0 120 1 120 20 0 19 -7 20 -120
20 -113 0 -120 -1 -120 -20z"/>
<path d="M982 2459 c-19 -30 -8 -34 12 -4 9 14 13 25 9 25 -5 0 -14 -9 -21
-21z"/>
<path d="M498 2463 c7 -3 16 -2 19 1 4 3 -2 6 -13 5 -11 0 -14 -3 -6 -6z"/>
<path d="M880 2389 c0 -5 5 -7 10 -4 6 3 10 8 10 11 0 2 -4 4 -10 4 -5 0 -10
-5 -10 -11z"/>
<path d="M930 2385 c-7 -8 -8 -15 -2 -15 5 0 15 7 22 15 7 8 8 15 2 15 -5 0
-15 -7 -22 -15z"/>
<path d="M835 2321 c-3 -2 -33 -4 -68 -3 l-62 1 55 -19 c30 -11 63 -19 73 -20
21 0 77 27 77 38 0 8 -67 11 -75 3z"/>
<path d="M1470 900 c0 -5 5 -10 10 -10 6 0 10 5 10 10 0 6 -4 10 -10 10 -5 0
-10 -4 -10 -10z"/>
<path d="M1470 840 c0 -5 5 -10 11 -10 5 0 7 5 4 10 -3 6 -8 10 -11 10 -2 0
-4 -4 -4 -10z"/>
</g>
</svg>
